# xmcd CD database file
#
# Track frame offsets:
#	150
#	17066
#	46425
#	64244
#	82722
#	103474
#	122888
#	138740
#	160337
#	178419
#	197720
#	216768
#	231026
#	247758
#	269110
#	289831
#	317186
#	336175
#
# Disc length: 4769 seconds
#
# Revision: 0
# Processed by: cddbd v1.5.1PL0 Copyright (c) Steve Scherf et al.
# Submitted via: CDex 1.51
#
DISCID=1a129f12
DTITLE=Swing Out Sister - Songs
DYEAR=2005
DGENRE=Jazz
TTITLE0=Breakout
TTITLE1=Twilight World
TTITLE2=Surrender
TTITLE3=Fooled By A Smile
TTITLE4=Communion
TTITLE5=Forever Blue
TTITLE6=You On My Mind
TTITLE7=Masquerade
TTITLE8=Tainted
TTITLE9=Waiting Game
TTITLE10=Precious Words
TTITLE11=The Kaliedoscope Affair
TTITLE12=Coney Island Man
TTITLE13=La La Means I Love You
TTITLE14=Who's Been Sleeping
TTITLE15=Stop And Think It Over
TTITLE16=Precious Words (Instrumental)
TTITLE17=Masquerade (Instrumental)
EXTD=YEAR: 2005
EXTT0=
EXTT1=
EXTT2=
EXTT3=
EXTT4=
EXTT5=
EXTT6=
EXTT7=
EXTT8=
EXTT9=
EXTT10=
EXTT11=
EXTT12=
EXTT13=
EXTT14=
EXTT15=
EXTT16=
EXTT17=
PLAYORDER=
